<?xml version="1.0" ?><!DOCTYPE svg  PUBLIC '-//W3C//DTD SVG 1.1//EN'  'http://www.w3.org/Graphics/SVG/1.1/DTD/svg11.dtd'><svg enable-background="new 0 0 24 24" height="24px" id="Layer_1" version="1.1" viewBox="0 0 24 24" width="24px" xml:space="preserve" xmlns="http://www.w3.org/2000/svg" xmlns:xlink="http://www.w3.org/1999/xlink"><g><g><path d="M9.7,22.3c-2.7,0-5.1-1.3-6.6-3.5c-1.6-2.4-1.7-5.6-0.4-8.7C2.8,9.8,3,9.7,3.2,9.7h18.5c0.2,0,0.3,0.1,0.4,0.2    s0.1,0.3,0,0.5C18.8,18.1,14.4,22.3,9.7,22.3z M3.5,10.7c-1.1,2.7-1,5.4,0.4,7.5c1.3,1.9,3.4,3.1,5.7,3.1c5.5,0,9.3-6.3,11.3-10.6    H3.5z"/></g><g><path d="M6.9,5.4c-1.5,0-2.6-0.8-2.6-1.8s1.2-1.8,2.6-1.8c1.5,0,2.6,0.8,2.6,1.8S8.3,5.4,6.9,5.4z M6.9,2.7    c-0.9,0-1.6,0.4-1.6,0.8s0.7,0.8,1.6,0.8c0.9,0,1.6-0.4,1.6-0.8S7.8,2.7,6.9,2.7z"/></g><g><path d="M16.4,5.4c-1.5,0-2.6-0.8-2.6-1.8s1.2-1.8,2.6-1.8c1.5,0,2.6,0.8,2.6,1.8S17.9,5.4,16.4,5.4z M16.4,2.7    c-0.9,0-1.6,0.4-1.6,0.8s0.7,0.8,1.6,0.8c0.9,0,1.6-0.4,1.6-0.8S17.3,2.7,16.4,2.7z"/></g></g></svg>